<svg width="4" height="17" viewBox="0 0 4 17" fill="none" xmlns="http://www.w3.org/2000/svg">
<path d="M1.88894 3.77778C1.38798 3.77778 0.907533 3.57877 0.553297 3.22453C0.199062 2.8703 5.4255e-05 2.38985 5.42769e-05 1.88889C5.42988e-05 1.38792 0.199062 0.907478 0.553297 0.553242C0.907533 0.199007 1.38798 -1.04464e-07 1.88894 -8.2566e-08C2.38991 -6.06681e-08 2.87035 0.199007 3.22459 0.553243C3.57882 0.907478 3.77783 1.38792 3.77783 1.88889C3.77783 2.38985 3.57882 2.8703 3.22459 3.22453C2.87035 3.57877 2.38991 3.77778 1.88894 3.77778ZM1.88894 10.3889C1.38798 10.3889 0.907532 10.1899 0.553297 9.83565C0.199062 9.48141 5.3966e-05 9.00096 5.39879e-05 8.5C5.40098e-05 7.99904 0.199062 7.51859 0.553297 7.16435C0.907533 6.81012 1.38798 6.61111 1.88894 6.61111C2.38991 6.61111 2.87035 6.81012 3.22459 7.16435C3.57882 7.51859 3.77783 7.99904 3.77783 8.5C3.77783 9.00096 3.57882 9.48141 3.22459 9.83565C2.87035 10.1899 2.38991 10.3889 1.88894 10.3889ZM1.88894 17C1.38798 17 0.907532 16.801 0.553297 16.4468C0.199061 16.0925 5.3677e-05 15.6121 5.36989e-05 15.1111C5.37208e-05 14.6101 0.199062 14.1297 0.553297 13.7755C0.907532 13.4212 1.38798 13.2222 1.88894 13.2222C2.38991 13.2222 2.87035 13.4212 3.22459 13.7755C3.57882 14.1297 3.77783 14.6101 3.77783 15.1111C3.77783 15.6121 3.57882 16.0925 3.22459 16.4468C2.87035 16.801 2.38991 17 1.88894 17Z" fill="white" fill-opacity="0.5"/>
</svg>
